<svg version="1.1" viewBox="0.0 0.0 960.0 720.0" fill="none" stroke="none" stroke-linecap="square" stroke-miterlimit="10" xmlns:xlink="http://www.w3.org/1999/xlink" xmlns="http://www.w3.org/2000/svg"><clipPath id="p.0"><path d="m0 0l960.0 0l0 720.0l-960.0 0l0 -720.0z" clip-rule="nonzero"/></clipPath><g clip-path="url(#p.0)"><path fill="#000000" fill-opacity="0.0" d="m0 0l960.0 0l0 720.0l-960.0 0z" fill-rule="evenodd"/><path fill="#fff2cc" d="m150.07874 146.42734l0 0c0 -58.97824 47.81131 -106.78954 106.78955 -106.78954l446.26343 0l0 0c28.322327 0 55.48468 11.251011 75.5116 31.277931c20.026917 20.026924 31.277954 47.189262 31.277954 75.51161l0 427.14536c0 58.97821 -47.81128 106.78949 -106.78955 106.78949l-446.26343 0c-58.97824 0 -106.78955 -47.81128 -106.78955 -106.78949z" fill-rule="evenodd"/><path stroke="#ffd966" stroke-width="12.0" stroke-linejoin="round" stroke-linecap="butt" d="m150.07874 146.42734l0 0c0 -58.97824 47.81131 -106.78954 106.78955 -106.78954l446.26343 0l0 0c28.322327 0 55.48468 11.251011 75.5116 31.277931c20.026917 20.026924 31.277954 47.189262 31.277954 75.51161l0 427.14536c0 58.97821 -47.81128 106.78949 -106.78955 106.78949l-446.26343 0c-58.97824 0 -106.78955 -47.81128 -106.78955 -106.78949z" fill-rule="evenodd"/><path fill="#000000" fill-opacity="0.0" d="m135.70079 39.637794l688.5984 0l0 154.55118l-688.5984 0z" fill-rule="evenodd"/><path fill="#ffd966" d="m373.51562 119.269035l15.078125 0l-18.59375 40.234383l0 15.0q0 13.203125 1.09375 27.734375l-14.140625 0l-1.5625 -12.34375q-11.5625 14.21875 -27.03125 14.21875q-8.828125 0 -14.765625 -4.21875q-5.9375 -4.21875 -9.421875 -11.25q-3.46875 -7.03125 -3.46875 -18.359375q0 -22.03125 12.1875 -37.453125q12.1875 -15.437508 29.140625 -15.437508q16.171875 0 24.53125 16.953133l6.953125 -15.078133zm-58.828125 52.109383q0 10.703125 4.84375 15.9375q4.84375 5.234375 12.03125 5.234375q11.796875 0 20.1875 -13.28125q8.40625 -13.28125 8.40625 -28.75q0 -9.21875 -4.5 -15.34375q-4.484375 -6.140625 -12.53125 -6.140625q-12.34375 0 -20.390625 13.5625q-8.046875 13.546875 -8.046875 28.78125zm91.875 -52.109383l14.140625 0l-7.734375 36.640633l40.3125 -36.640633l18.671875 0l-41.09375 34.453133l28.28125 48.515625l-16.171875 0l-22.421875 -39.84375l-11.171875 9.453125l-6.5625 30.390625l-14.140625 0l17.890625 -82.96876zm62.1875 82.96876l17.34375 -82.96876l14.140625 0l-17.34375 82.96876l-14.140625 0zm84.609375 -114.53126l17.734375 114.53126l-14.140625 0l-9.765625 -65.078125l-37.5 65.078125l-14.140625 0l48.828125 -82.96876l-5.15625 -31.5625l14.140625 0zm103.4375 31.5625l15.078125 0l-18.59375 40.234383l0 15.0q0 13.203125 1.09375 27.734375l-14.140625 0l-1.5625 -12.34375q-11.5625 14.21875 -27.03125 14.21875q-8.828125 0 -14.765625 -4.21875q-5.9375 -4.21875 -9.421875 -11.25q-3.46875 -7.03125 -3.46875 -18.359375q0 -22.03125 12.1875 -37.453125q12.1875 -15.437508 29.140625 -15.437508q16.171875 0 24.53125 16.953133l6.953125 -15.078133zm-58.828125 52.109383q0 10.703125 4.84375 15.9375q4.84375 5.234375 12.03125 5.234375q11.796875 0 20.1875 -13.28125q8.40625 -13.28125 8.40625 -28.75q0 -9.21875 -4.5 -15.34375q-4.484375 -6.140625 -12.53125 -6.140625q-12.34375 0 -20.390625 13.5625q-8.046875 13.546875 -8.046875 28.78125z" fill-rule="nonzero"/><path fill="#000000" fill-opacity="0.0" d="m150.07874 448.24933l688.59845 0l0 154.55121l-688.59845 0z" fill-rule="evenodd"/><path fill="#ffd966" d="m340.0811 567.7243l-31.40625 0l-14.84375 34.84375q-0.46875 0.78125 -0.46875 1.5625q0 2.1875 3.4375 3.515625q3.4375 1.328125 6.875 1.328125l0.15625 2.5l-30.78125 0.15625l0 -3.125q0.15625 0 0.3125 0q2.96875 0 6.40625 -1.328125q3.4375 -1.328125 5.46875 -3.671875q2.65625 -3.125 22.03125 -47.34375l19.375 -44.0625l5.15625 0l34.21875 81.09375q4.375 10.46875 9.53125 12.96875q1.40625 0.625 2.96875 0.859375q1.5625 0.234375 2.96875 0.234375q1.40625 0 2.03125 0.15625l-0.3125 3.90625q-10.46875 -0.46875 -23.59375 -0.46875q-11.875 0 -19.21875 0.46875l0.15625 -2.96875q0 0.15625 2.8125 0.15625q5.625 0 7.8125 -2.65625q1.09375 -1.25 1.09375 -3.4375q0 -2.03125 -0.9375 -4.53125l-0.78125 -2.34375l-10.46875 -27.8125zm-29.53125 -3.75l28.28125 0l-13.90625 -33.75l-14.375 33.75zm129.375 -1.40625q-6.40625 -12.96875 -16.5625 -12.96875q-6.25 0 -10.0 8.671875q-3.75 8.671875 -3.75 21.796875q0 12.5 3.359375 19.765625q3.359375 7.265625 9.765625 7.265625q4.0625 0 7.65625 -1.875q3.59375 -1.875 5.3125 -3.984375q1.71875 -2.109375 3.28125 -4.609375l1.875 -2.65625l0 -17.65625l-0.9375 -13.75zm14.21875 -15.15625q0 16.5625 -0.3125 49.921875q-0.3125 33.359375 -0.3125 41.640625q0 3.4375 11.09375 3.75l0 2.1875q-17.03125 -0.78125 -20.15625 -0.78125q-7.5 0 -14.21875 0.78125l0.46875 -2.1875q9.0625 0 10.0 -3.75l0.15625 -39.21875q-9.53125 13.28125 -21.09375 13.28125q-12.1875 0 -19.53125 -9.140625q-7.34375 -9.140625 -7.34375 -24.140625q0 -5.0 1.953125 -10.546875q1.953125 -5.546875 5.46875 -10.859375q3.515625 -5.3125 9.84375 -8.75q6.328125 -3.4375 13.984375 -3.4375q4.53125 0 9.53125 4.375q5.0 4.375 8.28125 9.21875q1.875 -1.40625 4.375 -5.234375q2.5 -3.828125 2.5 -6.328125l5.3125 -0.78125zm20.0 1.71875q13.75 0 22.65625 -1.71875l-0.3125 42.8125q0.3125 17.96875 8.4375 17.96875q4.53125 0 8.7500305 -3.203125q4.21875 -3.203125 6.875 -6.953125q2.65625 -3.75 4.21875 -7.03125l1.5625 -3.125l0 -34.375q-2.96875 -1.875 -9.21875 -1.875l0 -2.5q14.6875 0 22.96875 -1.71875l-1.25 31.09375q0 3.4375 0 7.8125l0.15625 20.15625q1.875 1.5625 9.53125 1.875l0 1.875q-11.875 0.625 -21.40625 2.96875l-1.09375 -17.03125l-1.875 2.5q-1.875 2.5 -4.84375 5.625q-2.96875 3.125 -7.5000305 5.703125q-4.53125 2.578125 -8.75 2.578125q-10.78125 0 -15.15625 -5.625q-4.375 -5.625 -4.375 -16.40625l-0.15625 -37.65625q-2.5 -1.25 -9.21875 -1.25l0 -2.5zm103.75003 -38.43747q3.59375 0 6.5625 2.5780945q2.96875 2.578125 2.96875 6.015625q0 4.21875 -2.734375 6.953125q-2.734375 2.734375 -6.796875 2.734375q-2.96875 0 -5.78125 -2.5q-2.8125 -2.5 -2.8125 -6.25q0 -3.90625 2.734375 -6.71875q2.734375 -2.8124695 5.859375 -2.8124695zm7.1875 34.21872q-0.3125 27.03125 -0.3125 60.15625q0.625 3.125 10.9375 3.28125l0 2.5q-6.40625 -0.46875 -17.03125 -0.46875q-10.15625 0 -16.25 0.46875l0 -2.5q9.375 -0.3125 9.84375 -3.28125l0 -52.5q-4.84375 -1.5625 -9.84375 -1.5625l0 -2.5q14.0625 -0.78125 22.65625 -3.59375zm45.625 -36.71872q-0.625 14.9999695 -0.78125 33.74997q0 7.5 0.234375 28.046875q0.234375 20.546875 0.234375 35.078125q0.3125 1.5625 4.21875 2.34375q3.90625 0.78125 6.5625 0.9375l0 2.5q-6.875 -0.78125 -16.40625 -0.78125q-11.09375 0 -18.125 0.78125l0 -2.5q10.3125 -0.46875 10.625 -3.28125q0.46875 -14.84375 0.46875 -41.09375q0 -27.96875 -0.46875 -46.5625q-3.90625 -3.125 -10.625 -3.125l0 -2.6562195q8.28125 -0.46875 24.0625 -3.4375zm82.81244 89.68747l2.34375 1.40625q-2.03125 12.65625 -15.0 12.65625q-5.3125 0 -7.96875 -3.515625q-2.65625 -3.515625 -3.125 -8.359375q-3.125 3.59375 -4.765625 5.15625q-1.640625 1.5625 -6.171875 4.296875q-4.53125 2.734375 -9.0625 2.734375q-7.812439 0 -13.437439 -4.375q-5.625 -4.375 -5.625 -13.90625q0 -4.21875 1.796875 -7.34375q1.796875 -3.125 5.0 -5.078125q3.203125 -1.953125 6.484314 -3.203125q3.28125 -1.25 7.65625 -1.796875q4.375 -0.546875 7.265625 -0.703125q2.890625 -0.15625 6.40625 -0.234375q3.515625 -0.078125 3.828125 -0.078125q0.46875 0 0.46875 -11.5625q0 -14.84375 -13.59375 -14.84375q-4.6875 0 -7.5 2.03125q-2.8125 2.03125 -3.4375 4.84375q4.53125 0 4.53125 6.875q0 4.21875 -2.8125 6.015625q-2.8125 1.796875 -5.468689 1.796875q-2.96875 0 -5.3125 -2.734375q-2.34375 -2.734375 -2.34375 -6.015625q0 -5.78125 7.34375 -11.25q5.937439 -4.53125 16.406189 -4.53125q9.84375 0 17.5 6.09375q7.65625 6.09375 7.65625 16.5625q0 5.15625 -0.3125 14.375q-0.3125 9.21875 -0.3125 13.28125q0 10.46875 4.84375 10.3125q2.8125 0 4.21875 -2.03125q1.40625 -2.03125 2.5 -6.875zm-24.375 -1.71875l0 -18.4375q-5.46875 0.46875 -10.078125 1.015625q-4.609375 0.546875 -7.890625 1.71875q-3.28125 1.171875 -5.15625 3.984375q-1.875 2.8125 -1.875 7.8125q0 6.71875 3.359375 9.84375q3.359375 3.125 8.515625 3.125q8.125 0 13.125 -9.0625z" fill-rule="nonzero"/><path fill="#ffd966" d="m480.0 465.64566l-128.78741 -92.36218l64.39371 0l0 -92.36221l128.78738 0l0 92.36221l64.39374 0z" fill-rule="evenodd"/></g></svg>