<svg version="1.1" viewBox="0.0 0.0 960.0 720.0" fill="none" stroke="none" stroke-linecap="square" stroke-miterlimit="10" xmlns:xlink="http://www.w3.org/1999/xlink" xmlns="http://www.w3.org/2000/svg"><clipPath id="p.0"><path d="m0 0l960.0 0l0 720.0l-960.0 0l0 -720.0z" clip-rule="nonzero"/></clipPath><g clip-path="url(#p.0)"><path fill="#000000" fill-opacity="0.0" d="m0 0l960.0 0l0 720.0l-960.0 0z" fill-rule="evenodd"/><path fill="#fff2cc" d="m150.07874 146.42734l0 0c0 -58.97824 47.81131 -106.78954 106.78955 -106.78954l446.26343 0l0 0c28.322327 0 55.48468 11.251011 75.5116 31.277931c20.026917 20.026924 31.277954 47.189262 31.277954 75.51161l0 427.14536c0 58.97821 -47.81128 106.78949 -106.78955 106.78949l-446.26343 0c-58.97824 0 -106.78955 -47.81128 -106.78955 -106.78949z" fill-rule="evenodd"/><path stroke="#ffd966" stroke-width="12.0" stroke-linejoin="round" stroke-linecap="butt" d="m150.07874 146.42734l0 0c0 -58.97824 47.81131 -106.78954 106.78955 -106.78954l446.26343 0l0 0c28.322327 0 55.48468 11.251011 75.5116 31.277931c20.026917 20.026924 31.277954 47.189262 31.277954 75.51161l0 427.14536c0 58.97821 -47.81128 106.78949 -106.78955 106.78949l-446.26343 0c-58.97824 0 -106.78955 -47.81128 -106.78955 -106.78949z" fill-rule="evenodd"/><path fill="#000000" fill-opacity="0.0" d="m191.08661 -177.29396l288.9134 0l0 247.65353l-288.9134 0z" fill-rule="evenodd"/><path fill="#ffd966" d="m486.0241 343.70602l-61.453125 0l-105.46875 -149.21873q-24.484375 13.28125 -28.90625 53.640625l-11.203125 95.57811l-51.5625 0l11.203125 -95.57811q7.8125 -66.65625 54.15625 -90.09375l-64.3125 -90.625l61.1875 0l88.546875 123.6875q16.140625 -10.671875 22.515625 -24.078125q6.390625 -13.421875 10.03125 -44.140625l6.515625 -55.46875l51.5625 0l-6.25 57.03125q-4.171875 36.71875 -16.546875 60.28125q-12.359375 23.5625 -42.828125 42.0625l82.8125 116.92186z" fill-rule="nonzero"/><path fill="#000000" fill-opacity="0.0" d="m454.3937 87.98688l315.18112 0l0 279.71652l-315.18112 0z" fill-rule="evenodd"/><path fill="#ffd966" d="m703.75305 332.42438l47.921875 0q-18.234375 57.296875 -33.59375 138.28125q18.21875 100.515625 33.59375 138.28125l-46.609375 0q-11.203125 -26.046875 -16.9375 -50.515625q-21.609375 56.765625 -90.359375 56.765625q-52.078125 0 -83.859375 -39.0625q-31.765594 -39.0625 -31.765594 -105.984375q0 -68.75 31.890594 -106.375q31.90625 -37.640625 84.515625 -37.640625q32.546875 0 53.125 13.15625q20.578125 13.140625 38.28125 39.96875q1.828125 -9.109375 13.796875 -46.875zm-97.390625 32.546875q-33.59375 0 -53.125 27.09375q-19.53125 27.078125 -19.53125 78.125q0 49.734375 18.484375 78.125q18.5 28.375 51.5625 28.375q32.296875 0 53.90625 -27.984375q21.625 -28.0 21.625 -80.609375q0 -51.03125 -20.1875 -77.078125q-20.1875 -26.046875 -52.734375 -26.046875z" fill-rule="nonzero"/><path fill="#ffd966" d="m420.56622 557.40875l-74.409424 0l0 0c-41.095215 0 -74.403564 -33.31427 -74.3963 -74.409454l0.010803223 -60.960632l-21.259842 0l42.527206 -42.519684l42.512177 42.519684l-21.259857 0l-0.010803223 60.960632l0 0c-0.003112793 17.612213 14.271912 31.88974 31.884125 31.88974l74.409454 0z" fill-rule="evenodd"/><path fill="#ffd966" d="m526.95996 111.85231l74.409424 0l0 0c41.095215 0 74.403564 33.31424 74.3963 74.40944l-0.010803223 60.960632l21.259827 0l-42.52722 42.519684l-42.512146 -42.519684l21.259827 0l0.010803223 -60.960632l0 0c0.003112793 -17.612228 -14.271912 -31.889755 -31.884094 -31.889755l-74.409485 0z" fill-rule="evenodd"/></g></svg>